原盘画质一般。作为惊悚片，加入了过量的噪点来营造气氛，可惜在编码之后产生了大量烂噪和蚊噪。线条偏糊，且有大量锯齿。平面得益于过量的噪点，基本上没什么色带。我们处理上主要是自适应去色块、常规抗锯齿、保底的去色带、补偿性锐化、收线和自适应降噪。后半季由于有大量战斗分镜和过量噪点的双重加持，码率上升明显，因此成品体积略微偏大。

正片外挂 FLAC 7.1，部分特典内封 FLAC 5.1。

<!--more-->

感谢所有参与制作者:
总监: 殉國禁獄鬼軍曹
压制: 魄啜繚亂弟切花魁
整理: LKey Eden
发布: diazchika
分流: VCB-Studio CDN 分流成员

[box style="download"]

10-bit 1080p HEVC

<!-- <a href="https://bangumi.moe/torrent/xxxxxxxx" rel="noopener" target="_blank">https://bangumi.moe/torrent/xxxxxxxx</a>

<a href="https://share.acgnx.se/show-xxxxxxxxxxxxxxx.html" rel="noopener" target="_blank">https://share.acgnx.se/show-xxxxxxxxxxxxxxx.html</a>

<a href="https://www.acgnx.se/show-xxxxxxxx.html" rel="noopener" target="_blank">https://www.acgnx.se/show-xxxxxxxx.html</a>

<a href="https://acg.rip/t/xxxxxx" rel="noopener" target="_blank">https://acg.rip/t/xxxxxx</a>

<a href="https://share.dmhy.org/topics/view/xxxxxx.html" rel="noopener" target="_blank">https://share.dmhy.org/topics/view/xxxxxx.html</a>

<a href="https://nyaa.si/view/xxxxxx" rel="noopener" target="_blank">https://nyaa.si/view/xxxxxx</a> -->
[/box]

Image Credit: <a href="https://www.pixiv.net/artworks/112460870" rel="noopener" target="_blank">wen</a>

<label for="medie-info-switch" class="btn btn-inverse-primary" title="展开MediaInfo">MediaInfo</label>

<pre class="js-medie-info-detail medie-info-detail" style="display: none;">
General
Unique ID                                : 115190979151209654790360728992424566671 (0x56A8F9C16260A46455241D5CD1FE9F8F)
Complete name                            : /Users/SAYA IS ∞ LOLICON!/[VCB-Studio] Dark Gathering [Ma10p_1080p]/[VCB-Studio] Dark Gathering [01][Ma10p_1080p][x265_flac].mkv
Format                                   : Matroska
Format version                           : Version 4
File size                                : 1.26 GiB
Duration                                 : 23 min 42 s
Overall bit rate mode                    : Variable
Overall bit rate                         : 7 594 kb/s
Frame rate                               : 23.976 FPS
Encoded date                             : 2024-04-24 09:59:46 UTC
Writing application                      : mkvmerge v48.0.0 ('Fortress Around Your Heart') 64-bit
Writing library                          : libebml v1.4.0 + libmatroska v1.6.0

Video
ID                                       : 1
Format                                   : HEVC
Format/Info                              : High Efficiency Video Coding
Format profile                           : Main 10@L4@Main
Codec ID                                 : V_MPEGH/ISO/HEVC
Duration                                 : 23 min 42 s
Bit rate                                 : 6 253 kb/s
Width                                    : 1 920 pixels
Height                                   : 1 080 pixels
Display aspect ratio                     : 16:9
Frame rate mode                          : Constant
Frame rate                               : 23.976 (24000/1001) FPS
Color space                              : YUV
Chroma subsampling                       : 4:2:0
Bit depth                                : 10 bits
Bits/(Pixel*Frame)                       : 0.126
Stream size                              : 1.04 GiB (82%)
Writing library                          : x265 3.5+98-g3449bc85e+20-gc1a540a56:[Windows][clang 15.0.7][64 bit] Kyouko 10bit+8bit+12bit
Encoding settings                        : rc=crf / crf=15.5000 / qcomp=0.70 / qpstep=4 / stats-write=0 / stats-read=0 / qscale-mode=0 / no-lossless / no-cu-lossless / aq-mode=3 / no-limit-aq1 / aq-strength=0.90 / aq-bias-strength=0.75 / limit-aq1-strength=1.00 / cbqpoffs=-2 / crqpoffs=-2 / ipratio=1.40 / pbratio=1.20 / psy-rd=2.50 / psy-rdoq=1.20 / psy-bscale=300 / psy-pscale=256 / psy-iscale=96 / deblock=-1:-1 / ref=5 / limit-refs=0 / no-limit-modes / bframes=16 / b-adapt=2 / bframe-bias=0 / b-pyramid / b-intra / weightp / weightb / min-keyint=1 / max-keyint=360 / rc-lookahead=120 / gop-lookahead=0 / scenecut=40 / hist-scenecut=0 / radl=0 / max-cu-size=32 / min-cu-size=8 / me=3 / subme=7 / merange=32 / rdoq-level=1 / rd=5 / rdpenalty=0 / dynamic-rd=0.00 / rd-refine / refine-tolerance=1.500 / ----- / cutree / cutree-strength=1.50 / cutree-minqpoffs=-69.00 / cutree-maxqpoffs=69.00 / no-sao / rect / no-amp / no-open-gop / wpp / no-pmode / no-pme / no-psnr / no-ssim / nr-intra=0 / nr-inter=0 / no-constrained-intra / no-strong-intra-smoothing / max-tu-size=16 / tu-inter-depth=4 / tu-intra-depth=4 / limit-tu=0 / qg-size=32 / qpmax=69 / qpmin=0 / ----- / cpuid=1111039 / frame-threads=4 / numa-pools=+ / log-level=2 / input-csp=1 / input-res=1920x1080 / interlace=0 / level-idc=0 / high-tier=1 / uhd-bd=0 / no-allow-non-conformance / no-repeat-headers / no-aud / no-hrd / info / hash=0 / no-temporal-layers / lookahead-slices=0 / no-splice / no-intra-refresh / no-ssim-rd / signhide / tskip / max-merge=5 / temporal-mvp / no-frame-dup / no-hme / no-analyze-src-pics / no-sao-non-deblock / selective-sao=0 / no-early-skip / no-rskip / no-fast-intra / no-tskip-fast / no-splitrd-skip / zone-count=0 / no-strict-cbr / no-rc-grain / no-const-vbv / sar=0 / overscan=0 / videoformat=5 / range=0 / colorprim=1 / transfer=1 / colormatrix=1 / chromaloc=0 / display-window=0 / cll=0,0 / min-luma=0 / max-luma=1023 / log2-max-poc-lsb=8 / vui-timing-info / vui-hrd-info / slices=1 / no-opt-qp-pps / no-opt-ref-list-length-pps / no-multi-pass-opt-rps / scenecut-bias=0.05 / hist-threshold=0.03 / no-opt-cu-delta-qp / no-aq-motion / no-hdr10 / no-hdr10-opt / no-dhdr10-opt / no-idr-recovery-sei / analysis-reuse-level=0 / analysis-save-reuse-level=0 / analysis-load-reuse-level=0 / scale-factor=0 / refine-intra=0 / refine-inter=0 / refine-mv=1 / refine-ctu-distortion=0 / no-limit-sao / ctu-info=0 / no-lowpass-dct / refine-analysis-type=0 / copy-pic=1 / max-ausize-factor=1.0 / no-dynamic-refine / no-single-sei / no-hevc-aq / no-svt / no-field / qp-adaptation-range=1.00 / scenecut-aware-qp=0conformance-window-offsets / right=0 / bottom=0 / decoder-max-rate=0 / no-vbv-live-multi-pass
Default                                  : Yes
Forced                                   : No
Color range                              : Limited
Color primaries                          : BT.709
Transfer characteristics                 : BT.709
Matrix coefficients                      : BT.709

Audio
ID                                       : 2
Format                                   : FLAC
Format/Info                              : Free Lossless Audio Codec
Codec ID                                 : A_FLAC
Duration                                 : 23 min 42 s
Bit rate mode                            : Variable
Bit rate                                 : 1 340 kb/s
Channel(s)                               : 2 channels
Channel layout                           : L R
Sampling rate                            : 48.0 kHz
Frame rate                               : 11.719 FPS (4096 SPF)
Bit depth                                : 24 bits
Compression mode                         : Lossless
Stream size                              : 227 MiB (18%)
Title                                    : Main 2.0ch
Writing library                          : libFLAC 1.3.2 (2017-01-01)
Language                                 : Japanese
Default                                  : Yes
Forced                                   : No
MD5 of the unencoded content             : 94037BD98B832C7B6CD6D8B590E058E0

Menu
00:00:00.000                             : en:Chapter 01
00:00:56.056                             : en:Chapter 02
00:02:26.021                             : en:Chapter 03
00:12:00.011                             : en:Chapter 04
00:23:21.025                             : en:Chapter 05

</pre>